<svg width="10" height="10" viewBox="0 0 10 10" fill="none" xmlns="http://www.w3.org/2000/svg">
<g clip-path="url(#clip0_24_314)">
<path d="M6.55375 1.61841C7.15125 1.01841 8.02542 1.00591 8.50917 1.49174C8.99417 1.97841 8.98125 2.85841 8.38292 3.45841L7.37334 4.47216C7.31649 4.53118 7.2851 4.61016 7.28592 4.6921C7.28675 4.77404 7.31973 4.85238 7.37775 4.91024C7.43577 4.9681 7.5142 5.00085 7.59614 5.00145C7.67809 5.00204 7.75698 4.97042 7.81584 4.91341L8.82584 3.89966C9.62209 3.10008 9.72209 1.82383 8.95209 1.05049C8.18125 0.276744 6.9075 0.377578 6.11042 1.17716L4.09125 3.20508C3.295 4.00466 3.195 5.28091 3.965 6.05383C3.99376 6.08374 4.02819 6.10762 4.06627 6.12408C4.10436 6.14054 4.14534 6.14925 4.18683 6.14971C4.22832 6.15016 4.26948 6.14235 4.30792 6.12673C4.34636 6.11111 4.3813 6.08799 4.41071 6.05872C4.44011 6.02945 4.4634 5.99461 4.4792 5.95625C4.49501 5.91789 4.50301 5.87676 4.50275 5.83527C4.50249 5.79378 4.49397 5.75276 4.47769 5.7146C4.46141 5.67643 4.43769 5.64189 4.40792 5.61299C3.92292 5.12633 3.93625 4.24633 4.53417 3.64633L6.55375 1.61841Z" fill="white"/>
<path d="M6.03542 3.94592C5.97685 3.88718 5.89735 3.85412 5.8144 3.854C5.73146 3.85389 5.65186 3.88672 5.59313 3.94529C5.53439 4.00386 5.50133 4.08336 5.50121 4.16631C5.5011 4.24926 5.53393 4.32885 5.5925 4.38758C6.0775 4.87425 6.06459 5.75384 5.46625 6.35425L3.44667 8.38175C2.84875 8.98175 1.97459 8.99425 1.49084 8.50842C1.00584 8.02175 1.01917 7.14175 1.61709 6.54175L2.62709 5.528C2.65606 5.49892 2.67902 5.46442 2.69466 5.42646C2.7103 5.3885 2.71831 5.34784 2.71823 5.30679C2.71815 5.26574 2.70999 5.2251 2.69421 5.18721C2.67843 5.14931 2.65534 5.11489 2.62625 5.08592C2.59717 5.05695 2.56267 5.03398 2.52471 5.01835C2.48675 5.00271 2.44609 4.9947 2.40504 4.99478C2.36399 4.99485 2.32335 5.00302 2.28546 5.0188C2.24756 5.03458 2.21314 5.05767 2.18417 5.08675L1.17417 6.1005C0.37792 6.9005 0.27792 8.17634 1.04792 8.94967C1.81875 9.72384 3.0925 9.62258 3.88959 8.823L5.90917 6.79509C6.70542 5.99592 6.80542 4.71884 6.03542 3.94592Z" fill="white"/>
</g>
<defs>
<clipPath id="clip0_24_314">
<rect width="10" height="10" fill="white"/>
</clipPath>
</defs>
</svg>
