<svg width="24" height="24" viewBox="0 0 24 24" fill="none" xmlns="http://www.w3.org/2000/svg">
<path d="M15.595 4.20471H8.40498C6.08498 4.20471 4.20465 6.08538 4.20465 8.40538V15.5947C4.20465 17.9147 6.08532 19.7954 8.40532 19.7954H15.5947C17.9147 19.7954 19.7953 17.9147 19.7953 15.5947V8.40538C19.7953 6.08538 17.915 4.20471 15.595 4.20471Z" fill="white"/>
<path d="M15.595 4.20471H8.40498C6.08498 4.20471 4.20465 6.08538 4.20465 8.40538V15.5947C4.20465 17.9147 6.08532 19.7954 8.40532 19.7954H15.5947C17.9147 19.7954 19.7953 17.9147 19.7953 15.5947V8.40538C19.7953 6.08538 17.915 4.20471 15.595 4.20471Z" stroke="black" stroke-width="2" stroke-miterlimit="10"/>
<path d="M12 15.7634C14.0785 15.7634 15.7634 14.0785 15.7634 12C15.7634 9.9216 14.0785 8.23669 12 8.23669C9.9216 8.23669 8.23669 9.9216 8.23669 12C8.23669 14.0785 9.9216 15.7634 12 15.7634Z" stroke="black" stroke-width="2" stroke-miterlimit="10"/>
<path d="M16.5696 8.23669C17.015 8.23669 17.376 7.87568 17.376 7.43036C17.376 6.98503 17.015 6.62402 16.5696 6.62402C16.1243 6.62402 15.7633 6.98503 15.7633 7.43036C15.7633 7.87568 16.1243 8.23669 16.5696 8.23669Z" fill="black"/>
</svg>
