<svg width="19" height="19" viewBox="0 0 19 19" fill="none" xmlns="http://www.w3.org/2000/svg">
<g id="icon">
<path id="Vector" d="M6.32463 2.77042C6.22104 2.87645 6.16305 3.01881 6.16305 3.16704C6.16305 3.31528 6.22104 3.45763 6.32463 3.56367L12.1113 9.49998L6.32463 15.4351C6.22104 15.5411 6.16305 15.6835 6.16305 15.8317C6.16305 15.98 6.22104 16.1223 6.32463 16.2284C6.37497 16.2801 6.43516 16.3212 6.50165 16.3492C6.56814 16.3773 6.63958 16.3917 6.71175 16.3917C6.78392 16.3917 6.85536 16.3773 6.92185 16.3492C6.98834 16.3212 7.04853 16.2801 7.09888 16.2284L13.2525 9.91442C13.3606 9.80353 13.4211 9.65482 13.4211 9.49998C13.4211 9.34514 13.3606 9.19642 13.2525 9.08554L7.09888 2.7716C7.04853 2.7199 6.98834 2.6788 6.92185 2.65074C6.85536 2.62267 6.78392 2.60822 6.71175 2.60822C6.63958 2.60822 6.56814 2.62267 6.50165 2.65074C6.43516 2.6788 6.37497 2.7199 6.32463 2.7716V2.77042Z" fill="black"/>
</g>
</svg>
